<svg version="1" xmlns="http://www.w3.org/2000/svg" width="346.667" height="346.667" viewBox="0 0 260.000000 260.000000"><path d="M213.7 8l8 8-8.9 8.8-9 8.9-6.6-4.5C160.6 4.7 113.7 2 74 22 50.9 33.7 30.7 54.5 19.5 78.3c-13 27.4-15.4 57.3-6.9 86.6 3.1 10.4 8.6 22.5 14.8 32 2.5 4 4.6 7.4 4.6 7.7 0 .4-7.2 7.8-16 16.6L0 237.3V260H23.3L38 245.2c8.1-8.1 15.4-15.3 16.3-16 1.4-1.2 2.4-.8 7.4 2.5 14 9.4 30.3 15.9 47.5 18.8 9.1 1.6 27.5 2.2 33.3 1.1 1.7-.3 4.8-.8 7.1-1 15.7-2 37.7-11.3 52.3-22.3 21.3-16 37.5-39.1 44.7-63.9 1.5-5.4 1.7-6.3 2.9-13.4.4-2.5.9-5.4 1.1-6.5.7-3 .6-23.7 0-27.6-.3-1.9-.8-5.2-1.1-7.4C247.8 96.8 240 77 231.6 64l-4.7-7.2 8.8-8.8 8.8-8.9 7.8 7.7 7.7 7.7V0h-54.3l8 8zm-43.1 45.9c-.3 10.9-.1 15.1.7 15.3.7.2 7.4.4 15 .3 12.8 0 14.2.2 13.8 2.7 0 .4-.1 5-.3 10.2-.1 6-.5 9.6-1.2 9.7-.6.1-7.3.2-14.8.2-7.5.1-13.9.4-14.2.7-.8.9-1.9 26-2 46.7-.1 17.9 0 19.3 2 22 4.2 5.7 12.1 7 23.8 4 5.2-1.4 5.6-1.4 5.2.1-.3 1-1 4.5-1.6 7.9-.6 3.5-1.4 7.5-1.6 9-.3 1.6-.7 3.3-.8 4-.3 2-1 2.3-9.2 3.8-9 1.6-31.7 1.5-34.9-.2-1.1-.6-3.3-1.7-4.8-2.4-3.8-1.8-7.5-5.5-10-10.4-1.9-3.5-2.2-5.6-2.2-17.5.1-7.4.4-18 .7-23.5l.7-10.1h-14c-12.1-.1-13.9.1-14 1.5-.1 1.7-.2 3.5-1.5 28.6-1.7 34.2-.9 40 6.5 43.4 2.2.9 5.3 1.7 6.8 1.6 5.5-.3 13.8-1.7 15.6-2.7 1.2-.6 1.7-.5 1.7.5 0 1.6-3.9 22.9-4.2 23.2-1.6 1.3-18.6 3.4-26.8 3.3-16.8-.1-26.8-4.4-31.4-13.4-1.7-3.5-3.6-13.7-3.1-16.9.2-1.1.7-8.3 1-16 .4-7.7.8-15.8 1-18 .1-2.2.6-10.5.9-18.4.4-8 .9-14.8 1.2-15.2.7-1.2-2.7-1.8-9.8-1.6-3.8.1-6.9-.2-7.1-.8-.4-1 .1-14.8.7-19.5.3-2.4.5-2.5 8.7-2.5 9.7 0 9.5.2 9.8-9.5.3-8.8.8-13 1.4-13.7.5-.5 2.5-.9 12.7-2.9 1.4-.3 5.3-1.2 8.8-2 9.8-2.2 9.1-3.3 8.5 13.1-.3 8-.1 14.5.3 14.6.5.1 6.7.2 13.7.3 14.4.1 14.4.1 14.3-6.9l-.1-3.9-8-.2c-10-.2-9.4-.1-8.9-2.2.2-.9.6-6 .8-11.2.3-5.2.5-9.6.6-9.6 0-.1 3.9-.1 8.6 0 4.7.1 8.7-.1 8.9-.4.2-.4.6-5.5.9-11.5.3-5.9.8-11 1-11.2.3-.3 5.6-1.5 11.8-2.8 9.1-1.9 15.3-3.3 18.6-4.4.1-.1 0 6.6-.2 14.8z"/></svg>